<svg xmlns="http://www.w3.org/2000/svg" viewBox="0 0 16 16" class="design-iconfont">
  <path d="M10.8164747,0 C11.2827858,0 11.7024657,0.31694696 11.896762,0.815006468 C12.0716286,1.26326003 12.0198681,1.77019405 11.7754745,2.16416818 L11.686922,2.29107374 L11.6402909,2.3454075 L8.05529785,5.61712646 C8.02265608,5.64972672 8.00927721,5.75170091 8.00379679,5.84566836 L8,6 L8,13.6235446 C8.00777185,14.393273 7.41240411,15 6.75956865,15 C6.59791415,15 6.44620763,14.9652264 6.30046988,14.8956792 L6.19222355,14.8369987 L4.64562526,13.8318241 C4.30288664,13.6199224 4.05412108,13.2246442 4.00779535,12.7780207 L4,12.6274256 L4,6 L3.99398022,5.8676326 C3.98911407,5.81723157 3.98053541,5.7657956 3.96568535,5.72905563 L3.93838684,5.68693402 L0.363335522,2.3454075 L0.324476268,2.29107374 C-0.00971331163,1.90168176 -0.0874318186,1.3221216 0.0990925981,0.815006468 C0.26866025,0.353992708 0.624495397,0.05762672 1.04397681,0.00755202588 L1.17160799,0 L10.8164747,0 Z M10.8164747,1 L1.17160799,1 C1.13042485,1 1.0834888,1.03550495 1.03762018,1.16021074 C0.980833203,1.31460089 0.991357522,1.47589596 1.07723006,1.62297397 L1.118,1.681 L4.57809036,4.91831226 C4.82726532,5.12569398 4.91502352,5.32230733 4.96216227,5.57930362 L4.98022987,5.69334924 L4.99553632,5.84904116 L5,6 L5,12.6274256 C5,12.7493019 5.05041167,12.8659387 5.12781887,12.9432627 L5.19057007,12.9933521 L6.71168774,13.9825065 L6.7319464,13.9938637 L6.75956865,14 C6.84345035,14 6.96177353,13.8851226 6.99250093,13.7136987 L7,13.6235446 L7,6 C7,5.89465234 7.00222441,5.81017208 7.01120319,5.70952129 C7.03813633,5.40760464 7.07764996,5.21996416 7.2827279,4.98335928 L7.38120105,4.87848345 L10.911,1.656 L10.9441573,1.60439452 C10.9956996,1.50385524 11.0129528,1.3806422 10.9899932,1.26411805 L10.965141,1.17843789 C10.924428,1.07407398 10.8755923,1.02249207 10.8401802,1.00603387 L10.8164747,1 Z M13.5,12 C13.7761424,12 14,12.2238576 14,12.5 C14,12.7761424 13.7761424,13 13.5,13 L9.5,13 C9.22385763,13 9,12.7761424 9,12.5 C9,12.2238576 9.22385763,12 9.5,12 L13.5,12 Z M13.5,10 C13.7761424,10 14,10.2238576 14,10.5 C14,10.7761424 13.7761424,11 13.5,11 L9.5,11 C9.22385763,11 9,10.7761424 9,10.5 C9,10.2238576 9.22385763,10 9.5,10 L13.5,10 Z M13.5,8 C13.7761424,8 14,8.22385763 14,8.5 C14,8.77614237 13.7761424,9 13.5,9 L9.5,9 C9.22385763,9 9,8.77614237 9,8.5 C9,8.22385763 9.22385763,8 9.5,8 L13.5,8 Z" transform="translate(1 1)" fill="#A2ACBD" fill-rule="evenodd"/>
</svg>
