<svg xmlns="http://www.w3.org/2000/svg" viewBox="0 0 16 16" class="design-iconfont">
  <path d="M6.49305998,1.91322269 L6.5,2 L6.5,15 C6.5,15.2761424 6.27614237,15.5 6,15.5 C5.75454011,15.5 5.55039163,15.3231248 5.50805567,15.0898756 L5.5,15 L5.499,3.5 L3.4,6.3 C3.25272407,6.49636791 2.98873485,6.5535616 2.77673391,6.44748084 L2.7,6.4 C2.50363209,6.25272407 2.4464384,5.98873485 2.55251916,5.77673391 L2.6,5.7 L5.6,1.7 C5.87028471,1.33962039 6.42480121,1.49630457 6.49305998,1.91322269 Z M9.99997057,1.49903031 C10.2454305,1.49903031 10.4495789,1.67590547 10.4919149,1.90915467 L10.4999706,1.99903031 L10.5009706,13.4990303 L12.5999706,10.6990303 C12.7472465,10.5026624 13.0112357,10.4454687 13.2232367,10.5515495 L13.2999706,10.5990303 C13.4963385,10.7463062 13.5535322,11.0102955 13.4474514,11.2222964 L13.3999706,11.2990303 L10.3999706,15.2990303 C10.1296859,15.6594099 9.57516936,15.5027257 9.5069106,15.0858076 L9.49997057,14.9990303 L9.49997057,1.99903031 C9.49997057,1.72288793 9.7238282,1.49903031 9.99997057,1.49903031 Z" fill="#A2ACBD" fill-rule="nonzero"/>
</svg>
