<svg xmlns="http://www.w3.org/2000/svg" viewBox="0 0 16 16" class="design-iconfont">
  <path d="M2,6.5 C2.82842712,6.5 3.5,7.17157288 3.5,8 C3.5,8.82842712 2.82842712,9.5 2,9.5 C1.17157288,9.5 0.5,8.82842712 0.5,8 C0.5,7.17157288 1.17157288,6.5 2,6.5 Z M8,6.5 C8.82842712,6.5 9.5,7.17157288 9.5,8 C9.5,8.82842712 8.82842712,9.5 8,9.5 C7.17157288,9.5 6.5,8.82842712 6.5,8 C6.5,7.17157288 7.17157288,6.5 8,6.5 Z M14,6.5 C14.8284271,6.5 15.5,7.17157288 15.5,8 C15.5,8.82842712 14.8284271,9.5 14,9.5 C13.1715729,9.5 12.5,8.82842712 12.5,8 C12.5,7.17157288 13.1715729,6.5 14,6.5 Z" fill="#A2ACBD" fill-rule="evenodd"/>
</svg>
